<svg width="19" height="19" viewBox="0 0 19 19" fill="none" xmlns="http://www.w3.org/2000/svg">
<path fill-rule="evenodd" clip-rule="evenodd" d="M10.4275 2.70292C11.6642 1.46626 13.6692 1.46626 14.9058 2.70292C16.1425 3.93958 16.1425 5.9446 14.9058 7.18126L7.90843 14.1787C7.13552 14.9516 5.88238 14.9516 5.10947 14.1787C4.33656 13.4058 4.33656 12.1526 5.10947 11.3797L12.1069 4.38229C12.416 4.07313 12.9173 4.07313 13.2265 4.38229C13.5356 4.69146 13.5356 5.19272 13.2265 5.50188L6.22905 12.4993C6.07447 12.6539 6.07447 12.9045 6.22905 13.0591C6.38364 13.2137 6.63427 13.2137 6.78885 13.0591L13.7863 6.06167C14.4046 5.44334 14.4046 4.44083 13.7863 3.8225C13.1679 3.20417 12.1654 3.20417 11.5471 3.8225L4.54968 10.8199C3.4676 11.902 3.4676 13.6564 4.54968 14.7385C5.63175 15.8205 7.38615 15.8205 8.46823 14.7385L15.6694 7.53731C15.9785 7.22814 16.4798 7.22814 16.789 7.53731C17.0981 7.84647 17.0981 8.34773 16.789 8.65689L9.58781 15.858C7.8874 17.5585 5.1305 17.5585 3.43009 15.858C1.72968 14.1576 1.72968 11.4007 3.43009 9.70033L10.4275 2.70292Z" fill="white"/>
</svg>
