<svg width="16" height="16" viewBox="0 0 16 16" fill="none" xmlns="http://www.w3.org/2000/svg">
<path fill-rule="evenodd" clip-rule="evenodd" d="M7.33331 2.66666C4.75598 2.66666 2.66665 4.756 2.66665 7.33333C2.66665 9.91066 4.75598 12 7.33331 12C9.91064 12 12 9.91066 12 7.33333C12 4.756 9.91064 2.66666 7.33331 2.66666ZM1.33331 7.33333C1.33331 4.01962 4.0196 1.33333 7.33331 1.33333C10.647 1.33333 13.3333 4.01962 13.3333 7.33333C13.3333 10.647 10.647 13.3333 7.33331 13.3333C4.0196 13.3333 1.33331 10.647 1.33331 7.33333Z" fill="#404040"/>
<path fill-rule="evenodd" clip-rule="evenodd" d="M10.8619 10.8619C11.1222 10.6016 11.5443 10.6016 11.8047 10.8619L14.4714 13.5286C14.7317 13.7889 14.7317 14.211 14.4714 14.4714C14.211 14.7317 13.7889 14.7317 13.5286 14.4714L10.8619 11.8047C10.6015 11.5444 10.6015 11.1223 10.8619 10.8619Z" fill="#404040"/>
</svg>
