<svg width="24" height="24" viewBox="0 0 24 24" fill="none" xmlns="http://www.w3.org/2000/svg">
<path fill-rule="evenodd" clip-rule="evenodd" d="M4 13C4 10.7909 5.79086 9 8 9H16C18.2091 9 20 10.7909 20 13V18C20 20.2091 18.2091 22 16 22H8C5.79086 22 4 20.2091 4 18V13ZM8 11C6.89543 11 6 11.8954 6 13V18C6 19.1046 6.89543 20 8 20H16C17.1046 20 18 19.1046 18 18V13C18 11.8954 17.1046 11 16 11H8Z" fill="#101010"/>
<path fill-rule="evenodd" clip-rule="evenodd" d="M8 6C8 3.79086 9.79086 2 12 2C14.2091 2 16 3.79086 16 6V10H14V6C14 4.89543 13.1046 4 12 4C10.8954 4 10 4.89543 10 6V10H8V6Z" fill="#101010"/>
</svg>
