<svg width="24" height="24" viewBox="0 0 24 24" fill="none" xmlns="http://www.w3.org/2000/svg">
<path fill-rule="evenodd" clip-rule="evenodd" d="M2 8C2 5.79086 3.79086 4 6 4H18C20.2091 4 22 5.79086 22 8V16C22 18.2091 20.2091 20 18 20H6C3.79086 20 2 18.2091 2 16V8ZM6 6C4.89543 6 4 6.89543 4 8V16C4 17.1046 4.89543 18 6 18H18C19.1046 18 20 17.1046 20 16V8C20 6.89543 19.1046 6 18 6H6Z" fill="#101010"/>
<path fill-rule="evenodd" clip-rule="evenodd" d="M6.21917 8.37528C6.56418 7.94402 7.19347 7.8741 7.62473 8.21911L12 11.7194L16.3753 8.21911C16.8066 7.8741 17.4359 7.94402 17.7809 8.37528C18.1259 8.80654 18.056 9.43584 17.6247 9.78084L12 14.2806L6.37534 9.78084C5.94408 9.43584 5.87416 8.80654 6.21917 8.37528Z" fill="#101010"/>
</svg>
