<svg width="19" height="19" viewBox="0 0 19 19" fill="none" xmlns="http://www.w3.org/2000/svg">
<path fill-rule="evenodd" clip-rule="evenodd" d="M1.58331 5.54167C1.58331 3.35554 3.35552 1.58333 5.54165 1.58333H13.4583C15.6444 1.58333 17.4166 3.35554 17.4166 5.54167V13.4583C17.4166 15.6445 15.6444 17.4167 13.4583 17.4167H5.54165C3.35552 17.4167 1.58331 15.6445 1.58331 13.4583V5.54167ZM5.54165 3.16667C4.22997 3.16667 3.16665 4.22999 3.16665 5.54167V13.4583C3.16665 14.77 4.22997 15.8333 5.54165 15.8333H13.4583C14.77 15.8333 15.8333 14.77 15.8333 13.4583V5.54167C15.8333 4.22999 14.77 3.16667 13.4583 3.16667H5.54165Z" fill="#4C4C4C"/>
<path fill-rule="evenodd" clip-rule="evenodd" d="M7.125 6.33333C6.68777 6.33333 6.33333 6.68777 6.33333 7.125C6.33333 7.56223 6.68777 7.91667 7.125 7.91667C7.56223 7.91667 7.91667 7.56223 7.91667 7.125C7.91667 6.68777 7.56223 6.33333 7.125 6.33333ZM4.75 7.125C4.75 5.81332 5.81332 4.75 7.125 4.75C8.43668 4.75 9.5 5.81332 9.5 7.125C9.5 8.43668 8.43668 9.5 7.125 9.5C5.81332 9.5 4.75 8.43668 4.75 7.125Z" fill="#4C4C4C"/>
<path fill-rule="evenodd" clip-rule="evenodd" d="M12.6091 11.1423C12.2684 10.8584 11.7611 10.9096 11.4841 11.2559L10.2181 12.8384C9.45712 13.7896 8.09521 14.0011 7.08168 13.3254C6.7515 13.1053 6.30783 13.1741 6.05994 13.484L3.78484 16.3279L2.54846 15.3388L4.82356 12.4949C5.58451 11.5437 6.94643 11.3323 7.95995 12.008C8.29013 12.2281 8.7338 12.1592 8.98169 11.8493L10.2477 10.2668C11.0787 9.22804 12.6008 9.07431 13.6227 9.92593L17.1318 12.8502L16.1182 14.0665L12.6091 11.1423Z" fill="#4C4C4C"/>
</svg>
