<svg width="19" height="19" viewBox="0 0 19 19" fill="none" xmlns="http://www.w3.org/2000/svg">
<path fill-rule="evenodd" clip-rule="evenodd" d="M1.58337 5.54168C1.58337 3.35555 3.35558 1.58334 5.54171 1.58334H13.4584C15.6445 1.58334 17.4167 3.35555 17.4167 5.54168V13.4583C17.4167 15.6445 15.6445 17.4167 13.4584 17.4167H5.54171C3.35558 17.4167 1.58337 15.6445 1.58337 13.4583V5.54168ZM5.54171 3.16668C4.23003 3.16668 3.16671 4.23 3.16671 5.54168V13.4583C3.16671 14.77 4.23003 15.8333 5.54171 15.8333H13.4584C14.77 15.8333 15.8334 14.77 15.8334 13.4583V5.54168C15.8334 4.23 14.77 3.16668 13.4584 3.16668H5.54171Z" fill="white"/>
<path fill-rule="evenodd" clip-rule="evenodd" d="M7.125 6.33333C6.68777 6.33333 6.33333 6.68777 6.33333 7.125C6.33333 7.56223 6.68777 7.91667 7.125 7.91667C7.56223 7.91667 7.91667 7.56223 7.91667 7.125C7.91667 6.68777 7.56223 6.33333 7.125 6.33333ZM4.75 7.125C4.75 5.81332 5.81332 4.75 7.125 4.75C8.43668 4.75 9.5 5.81332 9.5 7.125C9.5 8.43668 8.43668 9.5 7.125 9.5C5.81332 9.5 4.75 8.43668 4.75 7.125Z" fill="white"/>
<path fill-rule="evenodd" clip-rule="evenodd" d="M12.6091 11.1423C12.2684 10.8584 11.7611 10.9096 11.4841 11.2559L10.2181 12.8384C9.45712 13.7896 8.09521 14.0011 7.08168 13.3254C6.7515 13.1052 6.30783 13.1741 6.05994 13.484L3.78484 16.3279L2.54846 15.3388L4.82356 12.4949C5.58451 11.5437 6.94643 11.3323 7.95995 12.008C8.29013 12.2281 8.7338 12.1592 8.98169 11.8493L10.2477 10.2668C11.0787 9.22803 12.6008 9.0743 13.6227 9.92592L17.1318 12.8501L16.1182 14.0665L12.6091 11.1423Z" fill="white"/>
</svg>
